<svg width="566" height="127" viewBox="0 0 566 127" fill="none" xmlns="http://www.w3.org/2000/svg">
<g filter="url(#filter0_d_3_12)">
<path d="M114.076 73.3046V45.3046H126.636C129.863 45.3046 132.343 45.958 134.076 47.2646C135.809 48.5446 136.676 50.3046 136.676 52.5446C136.676 54.0646 136.329 55.3446 135.636 56.3846C134.969 57.4246 134.063 58.2246 132.916 58.7846C131.769 59.3446 130.529 59.6246 129.196 59.6246L129.916 58.4246C131.516 58.4246 132.929 58.7046 134.156 59.2646C135.383 59.8246 136.356 60.6513 137.076 61.7446C137.796 62.8113 138.156 64.1446 138.156 65.7446C138.156 68.1446 137.249 70.0113 135.436 71.3446C133.649 72.6513 130.983 73.3046 127.436 73.3046H114.076ZM118.076 70.0646H127.276C129.489 70.0646 131.183 69.6913 132.356 68.9446C133.529 68.198 134.116 67.0246 134.116 65.4246C134.116 63.798 133.529 62.6113 132.356 61.8646C131.183 61.118 129.489 60.7446 127.276 60.7446H117.716V57.5046H126.276C128.303 57.5046 129.876 57.1313 130.996 56.3846C132.116 55.638 132.676 54.518 132.676 53.0246C132.676 51.5313 132.116 50.4113 130.996 49.6646C129.876 48.918 128.303 48.5446 126.276 48.5446H118.076V70.0646ZM153.229 73.5446C150.963 73.5446 148.963 73.078 147.229 72.1446C145.523 71.2113 144.189 69.9313 143.229 68.3046C142.296 66.678 141.829 64.8113 141.829 62.7046C141.829 60.598 142.283 58.7313 143.189 57.1046C144.123 55.478 145.389 54.2113 146.989 53.3046C148.616 52.3713 150.443 51.9046 152.469 51.9046C154.523 51.9046 156.336 52.358 157.909 53.2646C159.483 54.1713 160.709 55.4513 161.589 57.1046C162.496 58.7313 162.949 60.638 162.949 62.8246C162.949 62.9846 162.936 63.1713 162.909 63.3846C162.909 63.598 162.896 63.798 162.869 63.9846H144.829V61.2246H160.869L159.309 62.1846C159.336 60.8246 159.056 59.6113 158.469 58.5446C157.883 57.478 157.069 56.6513 156.029 56.0646C155.016 55.4513 153.829 55.1446 152.469 55.1446C151.136 55.1446 149.949 55.4513 148.909 56.0646C147.869 56.6513 147.056 57.4913 146.469 58.5846C145.883 59.6513 145.589 60.878 145.589 62.2646V62.9046C145.589 64.318 145.909 65.5846 146.549 66.7046C147.216 67.798 148.136 68.6513 149.309 69.2646C150.483 69.878 151.829 70.1846 153.349 70.1846C154.603 70.1846 155.736 69.9713 156.749 69.5446C157.789 69.118 158.696 68.478 159.469 67.6246L161.589 70.1046C160.629 71.2246 159.429 72.078 157.989 72.6646C156.576 73.2513 154.989 73.5446 153.229 73.5446ZM180.856 73.3046V68.8246L180.656 67.9846V60.3446C180.656 58.718 180.176 57.4646 179.216 56.5846C178.282 55.678 176.869 55.2246 174.976 55.2246C173.722 55.2246 172.496 55.438 171.296 55.8646C170.096 56.2646 169.082 56.8113 168.256 57.5046L166.656 54.6246C167.749 53.7446 169.056 53.078 170.576 52.6246C172.122 52.1446 173.736 51.9046 175.416 51.9046C178.322 51.9046 180.562 52.6113 182.136 54.0246C183.709 55.438 184.496 57.598 184.496 60.5046V73.3046H180.856ZM173.896 73.5446C172.322 73.5446 170.936 73.278 169.736 72.7446C168.562 72.2113 167.656 71.478 167.016 70.5446C166.376 69.5846 166.056 68.5046 166.056 67.3046C166.056 66.158 166.322 65.118 166.856 64.1846C167.416 63.2513 168.309 62.5046 169.536 61.9446C170.789 61.3846 172.469 61.1046 174.576 61.1046H181.296V63.8646H174.736C172.816 63.8646 171.522 64.1846 170.856 64.8246C170.189 65.4646 169.856 66.238 169.856 67.1446C169.856 68.1846 170.269 69.0246 171.096 69.6646C171.922 70.278 173.069 70.5846 174.536 70.5846C175.976 70.5846 177.229 70.2646 178.296 69.6246C179.389 68.9846 180.176 68.0513 180.656 66.8246L181.416 69.4646C180.909 70.718 180.016 71.718 178.736 72.4646C177.456 73.1846 175.842 73.5446 173.896 73.5446ZM200.522 73.5446C198.709 73.5446 197.109 73.2113 195.722 72.5446C194.362 71.878 193.295 70.8646 192.522 69.5046C191.775 68.118 191.402 66.3846 191.402 64.3046V52.1046H195.242V63.8646C195.242 65.9446 195.735 67.5046 196.722 68.5446C197.735 69.5846 199.149 70.1046 200.962 70.1046C202.295 70.1046 203.455 69.838 204.442 69.3046C205.429 68.7446 206.189 67.9446 206.722 66.9046C207.255 65.838 207.522 64.558 207.522 63.0646V52.1046H211.362V73.3046H207.722V67.5846L208.322 69.1046C207.629 70.518 206.589 71.6113 205.202 72.3846C203.815 73.158 202.255 73.5446 200.522 73.5446ZM225.952 73.5446C223.819 73.5446 222.166 72.9713 220.992 71.8246C219.819 70.678 219.232 69.038 219.232 66.9046V47.4646H223.072V66.7446C223.072 67.8913 223.352 68.7713 223.912 69.3846C224.499 69.998 225.326 70.3046 226.392 70.3046C227.592 70.3046 228.592 69.9713 229.392 69.3046L230.592 72.0646C230.006 72.5713 229.299 72.9446 228.472 73.1846C227.672 73.4246 226.832 73.5446 225.952 73.5446ZM215.632 55.2646V52.1046H229.152V55.2646H215.632ZM235.764 81.3046C234.751 81.3046 233.764 81.1313 232.804 80.7846C231.844 80.4646 231.017 79.9846 230.324 79.3446L231.964 76.4646C232.497 76.9713 233.084 77.358 233.724 77.6246C234.364 77.8913 235.044 78.0246 235.764 78.0246C236.697 78.0246 237.471 77.7846 238.084 77.3046C238.697 76.8246 239.271 75.9713 239.804 74.7446L241.124 71.8246L241.524 71.3446L249.844 52.1046H253.604L243.324 75.4246C242.711 76.918 242.017 78.0913 241.244 78.9446C240.497 79.798 239.671 80.398 238.764 80.7446C237.857 81.118 236.857 81.3046 235.764 81.3046ZM240.804 73.9846L231.124 52.1046H235.124L243.364 70.9846L240.804 73.9846ZM257.748 73.3046V45.3046H261.748V73.3046H257.748ZM280.891 51.9046C282.624 51.9046 284.144 52.238 285.451 52.9046C286.784 53.5713 287.824 54.5846 288.571 55.9446C289.317 57.3046 289.691 59.0246 289.691 61.1046V73.3046H285.851V61.5446C285.851 59.4913 285.344 57.9446 284.331 56.9046C283.344 55.8646 281.944 55.3446 280.131 55.3446C278.771 55.3446 277.584 55.6113 276.571 56.1446C275.557 56.678 274.771 57.4646 274.211 58.5046C273.677 59.5446 273.411 60.838 273.411 62.3846V73.3046H269.571V52.1046H273.251V57.8246L272.651 56.3046C273.344 54.918 274.411 53.838 275.851 53.0646C277.291 52.2913 278.971 51.9046 280.891 51.9046ZM305.557 73.5446C303.504 73.5446 301.664 73.0913 300.037 72.1846C298.437 71.278 297.171 70.0113 296.237 68.3846C295.304 66.758 294.837 64.8646 294.837 62.7046C294.837 60.5446 295.304 58.6646 296.237 57.0646C297.171 55.438 298.437 54.1713 300.037 53.2646C301.664 52.358 303.504 51.9046 305.557 51.9046C307.344 51.9046 308.957 52.3046 310.397 53.1046C311.837 53.9046 312.984 55.1046 313.837 56.7046C314.717 58.3046 315.157 60.3046 315.157 62.7046C315.157 65.1046 314.731 67.1046 313.877 68.7046C313.051 70.3046 311.917 71.518 310.477 72.3446C309.037 73.1446 307.397 73.5446 305.557 73.5446ZM305.877 70.1846C307.211 70.1846 308.411 69.878 309.477 69.2646C310.571 68.6513 311.424 67.7846 312.037 66.6646C312.677 65.518 312.997 64.198 312.997 62.7046C312.997 61.1846 312.677 59.878 312.037 58.7846C311.424 57.6646 310.571 56.798 309.477 56.1846C308.411 55.5713 307.211 55.2646 305.877 55.2646C304.517 55.2646 303.304 55.5713 302.237 56.1846C301.171 56.798 300.317 57.6646 299.677 58.7846C299.037 59.878 298.717 61.1846 298.717 62.7046C298.717 64.198 299.037 65.518 299.677 66.6646C300.317 67.7846 301.171 68.6513 302.237 69.2646C303.304 69.878 304.517 70.1846 305.877 70.1846ZM313.117 73.3046V67.5846L313.357 62.6646L312.957 57.7446V43.6246H316.797V73.3046H313.117ZM332.983 73.5446C331.17 73.5446 329.57 73.2113 328.183 72.5446C326.823 71.878 325.756 70.8646 324.983 69.5046C324.236 68.118 323.863 66.3846 323.863 64.3046V52.1046H327.703V63.8646C327.703 65.9446 328.196 67.5046 329.183 68.5446C330.196 69.5846 331.61 70.1046 333.423 70.1046C334.756 70.1046 335.916 69.838 336.903 69.3046C337.89 68.7446 338.65 67.9446 339.183 66.9046C339.716 65.838 339.983 64.558 339.983 63.0646V52.1046H343.823V73.3046H340.183V67.5846L340.783 69.1046C340.09 70.518 339.05 71.6113 337.663 72.3846C336.276 73.158 334.716 73.5446 332.983 73.5446ZM357.213 73.5446C355.453 73.5446 353.773 73.3046 352.173 72.8246C350.6 72.3446 349.36 71.758 348.453 71.0646L350.053 68.0246C350.96 68.638 352.08 69.158 353.413 69.5846C354.747 70.0113 356.107 70.2246 357.493 70.2246C359.28 70.2246 360.56 69.9713 361.333 69.4646C362.133 68.958 362.533 68.2513 362.533 67.3446C362.533 66.678 362.293 66.158 361.813 65.7846C361.333 65.4113 360.693 65.1313 359.893 64.9446C359.12 64.758 358.253 64.598 357.293 64.4646C356.333 64.3046 355.373 64.118 354.413 63.9046C353.453 63.6646 352.573 63.3446 351.773 62.9446C350.973 62.518 350.333 61.9446 349.853 61.2246C349.373 60.478 349.133 59.4913 349.133 58.2646C349.133 56.9846 349.493 55.8646 350.213 54.9046C350.933 53.9446 351.947 53.2113 353.253 52.7046C354.587 52.1713 356.16 51.9046 357.973 51.9046C359.36 51.9046 360.76 52.078 362.173 52.4246C363.613 52.7446 364.787 53.2113 365.693 53.8246L364.053 56.8646C363.093 56.2246 362.093 55.7846 361.053 55.5446C360.013 55.3046 358.973 55.1846 357.933 55.1846C356.253 55.1846 355 55.4646 354.173 56.0246C353.347 56.558 352.933 57.2513 352.933 58.1046C352.933 58.8246 353.173 59.3846 353.653 59.7846C354.16 60.158 354.8 60.4513 355.573 60.6646C356.373 60.878 357.253 61.0646 358.213 61.2246C359.173 61.358 360.133 61.5446 361.093 61.7846C362.053 61.998 362.92 62.3046 363.693 62.7046C364.493 63.1046 365.133 63.6646 365.613 64.3846C366.12 65.1046 366.373 66.0646 366.373 67.2646C366.373 68.5446 366 69.6513 365.253 70.5846C364.507 71.518 363.453 72.2513 362.093 72.7846C360.733 73.2913 359.107 73.5446 357.213 73.5446ZM378.452 73.5446C376.319 73.5446 374.666 72.9713 373.492 71.8246C372.319 70.678 371.732 69.038 371.732 66.9046V47.4646H375.572V66.7446C375.572 67.8913 375.852 68.7713 376.412 69.3846C376.999 69.998 377.826 70.3046 378.892 70.3046C380.092 70.3046 381.092 69.9713 381.892 69.3046L383.092 72.0646C382.506 72.5713 381.799 72.9446 380.972 73.1846C380.172 73.4246 379.332 73.5446 378.452 73.5446ZM368.132 55.2646V52.1046H381.652V55.2646H368.132ZM387.735 73.3046V52.1046H391.415V57.8646L391.055 56.4246C391.641 54.958 392.628 53.838 394.015 53.0646C395.401 52.2913 397.108 51.9046 399.135 51.9046V55.6246C398.975 55.598 398.815 55.5846 398.655 55.5846C398.521 55.5846 398.388 55.5846 398.255 55.5846C396.201 55.5846 394.575 56.198 393.375 57.4246C392.175 58.6513 391.575 60.4246 391.575 62.7446V73.3046H387.735ZM405.647 81.3046C404.634 81.3046 403.647 81.1313 402.687 80.7846C401.727 80.4646 400.9 79.9846 400.207 79.3446L401.847 76.4646C402.38 76.9713 402.967 77.358 403.607 77.6246C404.247 77.8913 404.927 78.0246 405.647 78.0246C406.58 78.0246 407.354 77.7846 407.967 77.3046C408.58 76.8246 409.154 75.9713 409.687 74.7446L411.007 71.8246L411.407 71.3446L419.727 52.1046H423.487L413.207 75.4246C412.594 76.918 411.9 78.0913 411.127 78.9446C410.38 79.798 409.554 80.398 408.647 80.7446C407.74 81.118 406.74 81.3046 405.647 81.3046ZM410.687 73.9846L401.007 52.1046H405.007L413.247 70.9846L410.687 73.9846ZM118.939 96.3046L115.044 91.4026L116.545 90.4906L121.086 96.3046H118.939ZM111.643 96.3046V86.2346H113.467V96.3046H111.643ZM112.916 92.0486V90.4906H116.241V92.0486H112.916ZM116.697 91.4786L115.006 91.2506L118.863 86.2346H120.82L116.697 91.4786ZM128.337 96.4186C127.501 96.4186 126.735 96.2286 126.038 95.8486C125.354 95.456 124.803 94.8796 124.385 94.1196C123.98 93.3596 123.777 92.4096 123.777 91.2696C123.777 90.1296 123.974 89.1796 124.366 88.4196C124.772 87.6596 125.316 87.0896 126 86.7096C126.697 86.3296 127.476 86.1396 128.337 86.1396C129.325 86.1396 130.199 86.355 130.959 86.7856C131.719 87.2163 132.321 87.818 132.764 88.5906C133.208 89.3506 133.429 90.2436 133.429 91.2696C133.429 92.2956 133.208 93.195 132.764 93.9676C132.321 94.7403 131.719 95.342 130.959 95.7726C130.199 96.2033 129.325 96.4186 128.337 96.4186ZM122.998 99.9906V86.2346H124.746V88.9516L124.632 91.2886L124.822 93.6256V99.9906H122.998ZM128.185 94.8226C128.831 94.8226 129.408 94.677 129.914 94.3856C130.434 94.0943 130.839 93.6826 131.13 93.1506C131.434 92.606 131.586 91.979 131.586 91.2696C131.586 90.5476 131.434 89.927 131.13 89.4076C130.839 88.8756 130.434 88.464 129.914 88.1726C129.408 87.8813 128.831 87.7356 128.185 87.7356C127.552 87.7356 126.976 87.8813 126.456 88.1726C125.95 88.464 125.544 88.8756 125.24 89.4076C124.949 89.927 124.803 90.5476 124.803 91.2696C124.803 91.979 124.949 92.606 125.24 93.1506C125.544 93.6826 125.95 94.0943 126.456 94.3856C126.976 94.677 127.552 94.8226 128.185 94.8226ZM142.162 96.3046V94.1766L142.067 93.7776V90.1486C142.067 89.376 141.839 88.7806 141.383 88.3626C140.939 87.932 140.268 87.7166 139.369 87.7166C138.773 87.7166 138.191 87.818 137.621 88.0206C137.051 88.2106 136.569 88.4703 136.177 88.7996L135.417 87.4316C135.936 87.0136 136.557 86.697 137.279 86.4816C138.013 86.2536 138.78 86.1396 139.578 86.1396C140.958 86.1396 142.022 86.4753 142.77 87.1466C143.517 87.818 143.891 88.844 143.891 90.2246V96.3046H142.162ZM138.856 96.4186C138.108 96.4186 137.45 96.292 136.88 96.0386C136.322 95.7853 135.892 95.437 135.588 94.9936C135.284 94.5376 135.132 94.0246 135.132 93.4546C135.132 92.91 135.258 92.416 135.512 91.9726C135.778 91.5293 136.202 91.1746 136.785 90.9086C137.38 90.6426 138.178 90.5096 139.179 90.5096H142.371V91.8206H139.255C138.343 91.8206 137.728 91.9726 137.412 92.2766C137.095 92.5806 136.937 92.948 136.937 93.3786C136.937 93.8726 137.133 94.2716 137.526 94.5756C137.918 94.867 138.463 95.0126 139.16 95.0126C139.844 95.0126 140.439 94.8606 140.946 94.5566C141.465 94.2526 141.839 93.8093 142.067 93.2266L142.428 94.4806C142.187 95.076 141.763 95.551 141.155 95.9056C140.547 96.2476 139.78 96.4186 138.856 96.4186ZM151.564 96.4186C150.538 96.4186 149.62 96.197 148.809 95.7536C148.011 95.3103 147.384 94.7023 146.928 93.9296C146.472 93.157 146.244 92.2703 146.244 91.2696C146.244 90.269 146.472 89.3823 146.928 88.6096C147.384 87.837 148.011 87.2353 148.809 86.8046C149.62 86.3613 150.538 86.1396 151.564 86.1396C152.476 86.1396 153.287 86.3233 153.996 86.6906C154.718 87.0453 155.276 87.5773 155.668 88.2866L154.281 89.1796C153.952 88.6856 153.547 88.3246 153.065 88.0966C152.597 87.856 152.09 87.7356 151.545 87.7356C150.887 87.7356 150.298 87.8813 149.778 88.1726C149.259 88.464 148.847 88.8756 148.543 89.4076C148.239 89.927 148.087 90.5476 148.087 91.2696C148.087 91.9916 148.239 92.6186 148.543 93.1506C148.847 93.6826 149.259 94.0943 149.778 94.3856C150.298 94.677 150.887 94.8226 151.545 94.8226C152.09 94.8226 152.597 94.7086 153.065 94.4806C153.547 94.24 153.952 93.8726 154.281 93.3786L155.668 94.2526C155.276 94.9493 154.718 95.4876 153.996 95.8676C153.287 96.235 152.476 96.4186 151.564 96.4186ZM162.194 96.4186C161.181 96.4186 160.282 96.197 159.496 95.7536C158.711 95.3103 158.09 94.7023 157.634 93.9296C157.178 93.1443 156.95 92.2576 156.95 91.2696C156.95 90.269 157.178 89.3823 157.634 88.6096C158.09 87.837 158.711 87.2353 159.496 86.8046C160.282 86.3613 161.181 86.1396 162.194 86.1396C163.195 86.1396 164.088 86.3613 164.873 86.8046C165.671 87.2353 166.292 87.837 166.735 88.6096C167.191 89.3696 167.419 90.2563 167.419 91.2696C167.419 92.2703 167.191 93.157 166.735 93.9296C166.292 94.7023 165.671 95.3103 164.873 95.7536C164.088 96.197 163.195 96.4186 162.194 96.4186ZM162.194 94.8226C162.84 94.8226 163.417 94.677 163.923 94.3856C164.443 94.0943 164.848 93.6826 165.139 93.1506C165.431 92.606 165.576 91.979 165.576 91.2696C165.576 90.5476 165.431 89.927 165.139 89.4076C164.848 88.8756 164.443 88.464 163.923 88.1726C163.417 87.8813 162.84 87.7356 162.194 87.7356C161.548 87.7356 160.972 87.8813 160.465 88.1726C159.959 88.464 159.553 88.8756 159.249 89.4076C158.945 89.927 158.793 90.5476 158.793 91.2696C158.793 91.979 158.945 92.606 159.249 93.1506C159.553 93.6826 159.959 94.0943 160.465 94.3856C160.972 94.677 161.548 94.8226 162.194 94.8226ZM171.677 96.3046V87.3556L172.133 87.8306H167.991V86.2346H177.187V87.8306H173.064L173.501 87.3556V96.3046H171.677ZM185.227 96.3046V94.1766L185.132 93.7776V90.1486C185.132 89.376 184.904 88.7806 184.448 88.3626C184.005 87.932 183.334 87.7166 182.434 87.7166C181.839 87.7166 181.256 87.818 180.686 88.0206C180.116 88.2106 179.635 88.4703 179.242 88.7996L178.482 87.4316C179.002 87.0136 179.622 86.697 180.344 86.4816C181.079 86.2536 181.845 86.1396 182.643 86.1396C184.024 86.1396 185.088 86.4753 185.835 87.1466C186.583 87.818 186.956 88.844 186.956 90.2246V96.3046H185.227ZM181.921 96.4186C181.174 96.4186 180.515 96.292 179.945 96.0386C179.388 95.7853 178.957 95.437 178.653 94.9936C178.349 94.5376 178.197 94.0246 178.197 93.4546C178.197 92.91 178.324 92.416 178.577 91.9726C178.843 91.5293 179.268 91.1746 179.85 90.9086C180.446 90.6426 181.244 90.5096 182.244 90.5096H185.436V91.8206H182.32C181.408 91.8206 180.794 91.9726 180.477 92.2766C180.161 92.5806 180.002 92.948 180.002 93.3786C180.002 93.8726 180.199 94.2716 180.591 94.5756C180.984 94.867 181.529 95.0126 182.225 95.0126C182.909 95.0126 183.505 94.8606 184.011 94.5566C184.531 94.2526 184.904 93.8093 185.132 93.2266L185.493 94.4806C185.253 95.076 184.828 95.551 184.22 95.9056C183.612 96.2476 182.846 96.4186 181.921 96.4186ZM196.901 91.8776V90.5286H202.544V91.8776H196.901ZM198.25 86.1206C199.289 86.1206 200.22 86.3423 201.043 86.7856C201.867 87.229 202.513 87.837 202.981 88.6096C203.45 89.3823 203.684 90.269 203.684 91.2696C203.684 92.2576 203.45 93.1443 202.981 93.9296C202.513 94.715 201.867 95.3293 201.043 95.7726C200.22 96.216 199.289 96.4376 198.25 96.4376C197.389 96.4376 196.591 96.2983 195.856 96.0196C195.134 95.741 194.526 95.3356 194.032 94.8036L195.096 93.7396C195.514 94.145 195.977 94.449 196.483 94.6516C197.003 94.8416 197.566 94.9366 198.174 94.9366C198.909 94.9366 199.561 94.7846 200.131 94.4806C200.701 94.164 201.151 93.727 201.48 93.1696C201.822 92.6123 201.993 91.979 201.993 91.2696C201.993 90.5603 201.822 89.9333 201.48 89.3886C201.151 88.8313 200.701 88.3943 200.131 88.0776C199.561 87.761 198.909 87.6026 198.174 87.6026C197.566 87.6026 197.003 87.704 196.483 87.9066C195.977 88.1093 195.514 88.4133 195.096 88.8186L194.032 87.7736C194.526 87.229 195.134 86.8173 195.856 86.5386C196.591 86.26 197.389 86.1206 198.25 86.1206ZM207.896 96.3046V87.3556L208.352 87.8306H204.21V86.2346H213.406V87.8306H209.283L209.72 87.3556V96.3046H207.896ZM219.139 96.4186C218.125 96.4186 217.226 96.197 216.441 95.7536C215.655 95.3103 215.035 94.7023 214.579 93.9296C214.123 93.1443 213.895 92.2576 213.895 91.2696C213.895 90.269 214.123 89.3823 214.579 88.6096C215.035 87.837 215.655 87.2353 216.441 86.8046C217.226 86.3613 218.125 86.1396 219.139 86.1396C220.139 86.1396 221.032 86.3613 221.818 86.8046C222.616 87.2353 223.236 87.837 223.68 88.6096C224.136 89.3696 224.364 90.2563 224.364 91.2696C224.364 92.2703 224.136 93.157 223.68 93.9296C223.236 94.7023 222.616 95.3103 221.818 95.7536C221.032 96.197 220.139 96.4186 219.139 96.4186ZM219.139 94.8226C219.785 94.8226 220.361 94.677 220.868 94.3856C221.387 94.0943 221.792 93.6826 222.084 93.1506C222.375 92.606 222.521 91.979 222.521 91.2696C222.521 90.5476 222.375 89.927 222.084 89.4076C221.792 88.8756 221.387 88.464 220.868 88.1726C220.361 87.8813 219.785 87.7356 219.139 87.7356C218.493 87.7356 217.916 87.8813 217.41 88.1726C216.903 88.464 216.498 88.8756 216.194 89.4076C215.89 89.927 215.738 90.5476 215.738 91.2696C215.738 91.979 215.89 92.606 216.194 93.1506C216.498 93.6826 216.903 94.0943 217.41 94.3856C217.916 94.677 218.493 94.8226 219.139 94.8226ZM234.095 96.3046V87.3556L234.551 87.8306H230.409V86.2346H239.605V87.8306H235.482L235.919 87.3556V96.3046H234.095ZM251.426 96.3046V86.2346H253.25V96.3046H251.426ZM246.011 89.6546C247.291 89.6673 248.26 89.9586 248.918 90.5286C249.59 91.0986 249.925 91.903 249.925 92.9416C249.925 94.031 249.558 94.8733 248.823 95.4686C248.101 96.0513 247.063 96.3363 245.707 96.3236L241.47 96.3046V86.2346H243.294V89.6356L246.011 89.6546ZM245.574 94.9366C246.385 94.9493 247.006 94.7846 247.436 94.4426C247.867 94.1006 248.082 93.594 248.082 92.9226C248.082 92.264 247.867 91.7826 247.436 91.4786C247.018 91.1746 246.398 91.0163 245.574 91.0036L243.294 90.9656V94.9176L245.574 94.9366Z" fill="#F5F5F5"/>
</g>
<path d="M11.97 110V30.2H47.766C56.962 30.2 64.03 32.062 68.97 35.786C73.91 39.434 76.38 44.45 76.38 50.834C76.38 55.166 75.392 58.814 73.416 61.778C71.516 64.742 68.932 67.022 65.664 68.618C62.396 70.214 58.862 71.012 55.062 71.012L57.114 67.592C61.674 67.592 65.702 68.39 69.198 69.986C72.694 71.582 75.468 73.938 77.52 77.054C79.572 80.094 80.598 83.894 80.598 88.454C80.598 95.294 78.014 100.614 72.846 104.414C67.754 108.138 60.154 110 50.046 110H11.97ZM23.37 100.766H49.59C55.898 100.766 60.724 99.702 64.068 97.574C67.412 95.446 69.084 92.102 69.084 87.542C69.084 82.906 67.412 79.524 64.068 77.396C60.724 75.268 55.898 74.204 49.59 74.204H22.344V64.97H46.74C52.516 64.97 57 63.906 60.192 61.778C63.384 59.65 64.98 56.458 64.98 52.202C64.98 47.946 63.384 44.754 60.192 42.626C57 40.498 52.516 39.434 46.74 39.434H23.37V100.766Z" fill="#F5F5F5"/>
<path d="M81.7325 110V30.2H93.1325V110H81.7325Z" fill="#F5F5F5"/>
<defs>
<filter id="filter0_d_3_12" x="107.643" y="43.6246" width="319.844" height="64.366" filterUnits="userSpaceOnUse" color-interpolation-filters="sRGB">
<feFlood flood-opacity="0" result="BackgroundImageFix"/>
<feColorMatrix in="SourceAlpha" type="matrix" values="0 0 0 0 0 0 0 0 0 0 0 0 0 0 0 0 0 0 127 0" result="hardAlpha"/>
<feOffset dy="4"/>
<feGaussianBlur stdDeviation="2"/>
<feComposite in2="hardAlpha" operator="out"/>
<feColorMatrix type="matrix" values="0 0 0 0 0 0 0 0 0 0 0 0 0 0 0 0 0 0 0.25 0"/>
<feBlend mode="normal" in2="BackgroundImageFix" result="effect1_dropShadow_3_12"/>
<feBlend mode="normal" in="SourceGraphic" in2="effect1_dropShadow_3_12" result="shape"/>
</filter>
</defs>
</svg>
