<?xml version="1.0" standalone="no"?>
<!DOCTYPE svg PUBLIC "-//W3C//DTD SVG 20010904//EN"
 "http://www.w3.org/TR/2001/REC-SVG-20010904/DTD/svg10.dtd">
<svg version="1.0" xmlns="http://www.w3.org/2000/svg"
 width="300.000000pt" height="223.000000pt" viewBox="0 0 300.000000 223.000000"
 preserveAspectRatio="xMidYMid meet">

<g transform="translate(0.000000,223.000000) scale(0.100000,-0.100000)"
fill="#000000" stroke="none">
<path d="M1380 1170 c-6 -11 -23 -27 -38 -35 -27 -15 -27 -15 -3 -13 16 2 32
15 44 36 10 17 16 32 13 32 -3 0 -10 -9 -16 -20z"/>
<path d="M1288 1113 c7 -3 16 -2 19 1 4 3 -2 6 -13 5 -11 0 -14 -3 -6 -6z"/>
<path d="M850 1095 c0 -2 10 -10 23 -16 20 -11 21 -11 8 4 -13 16 -31 23 -31
12z"/>
<path d="M446 734 c-28 -27 -19 -60 25 -94 31 -26 39 -38 37 -59 -2 -21 -9
-27 -35 -29 -26 -3 -33 0 -33 15 0 15 -2 15 -9 3 -6 -8 -7 -18 -5 -22 8 -13
81 -9 91 5 27 35 24 50 -22 92 -46 43 -57 78 -29 89 30 11 44 6 44 -16 1 -21
2 -21 11 -5 5 9 7 22 4 27 -10 16 -62 12 -79 -6z"/>
<path d="M680 741 c-17 -5 -21 -9 -12 -15 8 -5 12 -36 12 -97 l0 -90 52 3 c35
2 53 8 56 18 4 12 2 13 -9 3 -7 -7 -28 -13 -46 -13 -33 0 -33 0 -33 49 l0 50
38 4 37 4 -38 1 c-38 2 -38 2 -35 40 3 32 7 37 31 40 16 2 35 -3 44 -10 14
-11 15 -11 11 2 -5 17 -67 23 -108 11z"/>
<path d="M925 744 c-6 -3 -8 -41 -5 -101 l5 -98 49 -3 c32 -2 52 1 57 10 14
22 10 30 -7 14 -8 -9 -29 -16 -45 -16 l-29 0 0 94 c0 92 -4 107 -25 100z"/>
<path d="M1180 744 c-12 -4 -14 -22 -12 -104 l3 -100 54 0 c39 0 54 4 59 16 9
24 7 27 -10 10 -8 -9 -31 -16 -50 -16 l-35 0 3 48 c3 47 3 47 43 53 l40 6 -43
2 -43 1 3 38 c3 33 6 37 33 40 19 3 33 -2 42 -14 12 -17 13 -16 13 4 0 19 -5
22 -42 21 -24 -1 -50 -3 -58 -5z"/>
<path d="M1454 739 c-35 -18 -57 -66 -51 -113 8 -56 43 -86 102 -86 24 0 46 3
48 8 3 4 -14 6 -36 4 -34 -3 -46 1 -64 20 -33 36 -35 116 -3 148 26 26 85 27
100 3 10 -16 10 -16 8 2 -3 16 -12 20 -43 22 -22 1 -49 -3 -61 -8z"/>
<path d="M1666 742 c-2 -4 -1 -14 5 -22 7 -12 9 -12 9 3 0 14 6 18 28 15 l27
-3 0 -98 c0 -80 3 -97 15 -97 13 0 14 16 12 101 l-3 100 28 -3 c19 -2 27 -8
25 -18 -3 -11 -1 -12 8 -3 23 22 -1 33 -75 33 -41 0 -76 -4 -79 -8z"/>
<path d="M2102 743 c-11 -4 -10 -8 1 -22 8 -9 29 -53 48 -99 18 -45 36 -79 40
-75 9 10 79 184 79 197 0 23 -18 -13 -45 -87 -15 -43 -31 -75 -34 -70 -4 4
-20 40 -36 78 -32 80 -35 84 -53 78z"/>
<path d="M2400 744 c-12 -4 -14 -21 -10 -102 l5 -97 51 -3 c40 -2 53 1 58 13
5 13 2 14 -15 5 -11 -6 -32 -10 -47 -8 -25 3 -27 7 -27 48 0 45 0 45 40 51
l40 6 -43 2 -43 1 3 38 c3 33 6 37 33 40 18 2 33 -2 41 -12 10 -14 13 -14 17
-2 3 8 3 17 0 20 -7 7 -79 6 -103 0z"/>
<path d="M1948 640 c2 -69 7 -100 15 -100 9 0 11 28 9 100 -2 69 -7 100 -15
100 -9 0 -11 -28 -9 -100z"/>
</g>
</svg>
