<svg width="144" height="130" viewBox="0 0 144 130" fill="none" xmlns="http://www.w3.org/2000/svg">
<path d="M11.97 110V30.2H47.766C56.962 30.2 64.03 32.062 68.97 35.786C73.91 39.434 76.38 44.45 76.38 50.834C76.38 55.166 75.392 58.814 73.416 61.778C71.516 64.742 68.932 67.022 65.664 68.618C62.396 70.214 58.862 71.012 55.062 71.012L57.114 67.592C61.674 67.592 65.702 68.39 69.198 69.986C72.694 71.582 75.468 73.938 77.52 77.054C79.572 80.094 80.598 83.894 80.598 88.454C80.598 95.294 78.014 100.614 72.846 104.414C67.754 108.138 60.154 110 50.046 110H11.97ZM23.37 100.766H49.59C55.898 100.766 60.724 99.702 64.068 97.574C67.412 95.446 69.084 92.102 69.084 87.542C69.084 82.906 67.412 79.524 64.068 77.396C60.724 75.268 55.898 74.204 49.59 74.204H22.344V64.97H46.74C52.516 64.97 57 63.906 60.192 61.778C63.384 59.65 64.98 56.458 64.98 52.202C64.98 47.946 63.384 44.754 60.192 42.626C57 40.498 52.516 39.434 46.74 39.434H23.37V100.766Z" fill="#F5F5F5"/>
<path d="M82.9651 110V30.2H94.3651V110H82.9651Z" fill="#F5F5F5"/>
</svg>
